<?xml version="1.0" standalone="no"?>
<!DOCTYPE svg PUBLIC "-//W3C//DTD SVG 20010904//EN"
 "http://www.w3.org/TR/2001/REC-SVG-20010904/DTD/svg10.dtd">
<svg version="1.0" xmlns="http://www.w3.org/2000/svg"
 width="800.000000pt" height="800.000000pt" viewBox="0 0 800.000000 800.000000"
 preserveAspectRatio="xMidYMid meet">

<g transform="translate(0.000000,800.000000) scale(0.100000,-0.100000)"
fill="#000000" stroke="none">
<path d="M3788 7989 c-795 -41 -1557 -320 -2203 -808 -312 -235 -629 -566
-862 -896 -730 -1038 -916 -2390 -496 -3600 303 -870 921 -1631 1713 -2107
1325 -797 2988 -760 4270 95 489 327 913 770 1212 1267 797 1325 760 2988 -95
4270 -165 247 -321 433 -548 655 -622 606 -1423 993 -2279 1099 -118 15 -470
37 -535 34 -16 0 -96 -4 -177 -9z m1172 -3589 l0 -2140 -385 0 -385 0 0 158 0
158 -57 -56 c-176 -169 -399 -286 -620 -325 -111 -19 -326 -19 -439 0 -320 56
-606 241 -790 511 -107 155 -168 293 -211 474 -34 145 -44 443 -19 605 83 538
463 961 966 1076 111 26 345 36 463 20 242 -32 468 -138 638 -298 l69 -65 0
1011 0 1011 385 0 385 0 0 -2140z"/>
<path d="M3355 4214 c-114 -28 -202 -80 -296 -173 -72 -72 -94 -101 -132 -181
-61 -125 -82 -227 -74 -370 11 -202 65 -328 197 -460 96 -97 163 -137 285
-171 101 -28 267 -31 365 -6 324 83 533 387 506 734 -15 185 -77 324 -201 449
-86 87 -152 129 -255 164 -86 29 -304 37 -395 14z"/>
</g>
</svg>
