<svg width="700" height="700" viewBox="0 0 700 700" fill="none" xmlns="http://www.w3.org/2000/svg">
<circle cx="350" cy="350" r="350" fill="white"/>
<path d="M196.395 375.28C192.689 375.28 189.302 374.36 186.235 372.52C183.195 370.653 180.769 368.08 178.955 364.8C177.142 361.52 176.235 357.76 176.235 353.52C176.235 349.36 177.115 345.653 178.875 342.4C180.635 339.12 183.049 336.533 186.115 334.64C189.209 332.72 192.742 331.76 196.715 331.76C199.595 331.76 202.262 332.32 204.715 333.44C207.169 334.533 209.209 336.067 210.835 338.04V305.2H223.115V374H210.835V368.6C209.022 370.707 206.875 372.347 204.395 373.52C201.915 374.693 199.249 375.28 196.395 375.28ZM200.075 364.84C202.235 364.84 204.142 364.36 205.795 363.4C207.449 362.413 208.742 361.067 209.675 359.36C210.635 357.653 211.115 355.72 211.115 353.56C211.115 351.373 210.635 349.427 209.675 347.72C208.742 346.013 207.449 344.667 205.795 343.68C204.142 342.693 202.249 342.2 200.115 342.2C198.009 342.2 196.129 342.693 194.475 343.68C192.849 344.667 191.555 346.027 190.595 347.76C189.635 349.467 189.155 351.413 189.155 353.6C189.155 355.76 189.622 357.693 190.555 359.4C191.489 361.08 192.782 362.413 194.435 363.4C196.089 364.36 197.969 364.84 200.075 364.84ZM237.52 374V333.04H249.8V374H237.52ZM243.68 324.52C242.347 324.52 241.12 324.2 240 323.56C238.907 322.893 238.027 322 237.36 320.88C236.694 319.76 236.36 318.533 236.36 317.2C236.36 315.867 236.694 314.653 237.36 313.56C238.027 312.467 238.907 311.6 240 310.96C241.12 310.293 242.347 309.96 243.68 309.96C245.014 309.96 246.227 310.293 247.32 310.96C248.414 311.6 249.28 312.467 249.92 313.56C250.587 314.653 250.92 315.867 250.92 317.2C250.92 318.533 250.587 319.76 249.92 320.88C249.28 322 248.414 322.893 247.32 323.56C246.227 324.2 245.014 324.52 243.68 324.52ZM283.999 396C278.479 396 273.839 394.987 270.079 392.96C266.319 390.96 263.586 388 261.879 384.08L271.879 379.2C272.999 381.093 274.652 382.6 276.839 383.72C279.026 384.84 281.399 385.4 283.959 385.4C286.279 385.4 288.319 384.933 290.079 384C291.839 383.093 293.212 381.8 294.199 380.12C295.186 378.467 295.679 376.547 295.679 374.36V368.6C293.866 370.707 291.719 372.347 289.239 373.52C286.759 374.693 284.092 375.28 281.239 375.28C277.532 375.28 274.146 374.36 271.079 372.52C268.039 370.653 265.612 368.08 263.799 364.8C261.986 361.52 261.079 357.76 261.079 353.52C261.079 349.36 261.959 345.653 263.719 342.4C265.506 339.12 267.932 336.533 270.999 334.64C274.092 332.72 277.612 331.76 281.559 331.76C284.439 331.76 287.106 332.32 289.559 333.44C292.012 334.533 294.052 336.067 295.679 338.04V333.04H307.959V375.12C307.959 379.147 307.079 382.733 305.319 385.88C303.586 389.027 300.946 391.493 297.399 393.28C293.852 395.093 289.386 396 283.999 396ZM284.919 364.84C287.079 364.84 288.986 364.36 290.639 363.4C292.319 362.413 293.626 361.08 294.559 359.4C295.492 357.693 295.959 355.76 295.959 353.6C295.959 351.387 295.479 349.427 294.519 347.72C293.586 346.013 292.292 344.667 290.639 343.68C288.986 342.693 287.106 342.2 284.999 342.2C282.892 342.2 281.012 342.693 279.359 343.68C277.706 344.667 276.399 346.027 275.439 347.76C274.479 349.467 273.999 351.413 273.999 353.6C273.999 355.76 274.466 357.693 275.399 359.4C276.332 361.08 277.626 362.413 279.279 363.4C280.932 364.36 282.812 364.84 284.919 364.84ZM322.364 374V333.04H334.644V374H322.364ZM328.524 324.52C327.191 324.52 325.964 324.2 324.844 323.56C323.751 322.893 322.871 322 322.204 320.88C321.537 319.76 321.204 318.533 321.204 317.2C321.204 315.867 321.537 314.653 322.204 313.56C322.871 312.467 323.751 311.6 324.844 310.96C325.964 310.293 327.191 309.96 328.524 309.96C329.857 309.96 331.071 310.293 332.164 310.96C333.257 311.6 334.124 312.467 334.764 313.56C335.431 314.653 335.764 315.867 335.764 317.2C335.764 318.533 335.431 319.76 334.764 320.88C334.124 322 333.257 322.893 332.164 323.56C331.071 324.2 329.857 324.52 328.524 324.52ZM363.243 375.28C359.163 375.28 355.989 373.987 353.723 371.4C351.456 368.787 350.323 365.147 350.323 360.48V342.36H344.843V333.04H350.323V317.68H362.603V333.04H371.603V342.36H362.603V359.6C362.603 361.147 362.909 362.32 363.523 363.12C364.163 363.92 365.056 364.32 366.203 364.32C367.483 364.32 368.709 363.893 369.883 363.04L372.963 372.88C371.576 373.627 370.016 374.213 368.283 374.64C366.576 375.067 364.896 375.28 363.243 375.28ZM403.656 375.28C396.189 375.28 390.803 373.8 387.496 370.84C384.189 367.88 382.536 363.04 382.536 356.32V333.04H394.816V353.44C394.816 357.76 395.483 360.813 396.816 362.6C398.176 364.387 400.456 365.28 403.656 365.28C406.909 365.28 409.189 364.387 410.496 362.6C411.829 360.813 412.496 357.76 412.496 353.44V333.04H424.776V356.32C424.776 363.04 423.123 367.88 419.816 370.84C416.536 373.8 411.149 375.28 403.656 375.28ZM438.263 374V333.04H450.543V338.92C452.063 336.627 453.917 334.867 456.103 333.64C458.317 332.387 460.69 331.76 463.223 331.76C464.663 331.76 466.157 331.973 467.703 332.4C469.25 332.827 470.543 333.373 471.583 334.04L466.463 344.4C465.557 343.787 464.49 343.307 463.263 342.96C462.063 342.587 460.943 342.4 459.903 342.4C458.303 342.4 456.783 342.813 455.343 343.64C453.903 344.467 452.743 345.547 451.863 346.88C450.983 348.187 450.543 349.6 450.543 351.12V374H438.263ZM478.42 374V333.04H490.7V337.6C492.273 335.84 494.233 334.427 496.58 333.36C498.953 332.293 501.566 331.76 504.42 331.76C507.566 331.76 510.326 332.453 512.7 333.84C515.1 335.2 516.98 337.107 518.34 339.56C519.7 341.987 520.38 344.827 520.38 348.08V374H508.1V350.68C508.1 347.747 507.326 345.467 505.78 343.84C504.26 342.187 502.166 341.36 499.5 341.36C497.686 341.36 496.113 341.733 494.78 342.48C493.473 343.2 492.46 344.2 491.74 345.48C491.046 346.733 490.7 348.16 490.7 349.76V374H478.42Z" fill="url(#paint0_linear_528_299)"/>
<defs>
<linearGradient id="paint0_linear_528_299" x1="139.5" y1="305" x2="548" y2="342" gradientUnits="userSpaceOnUse">
<stop/>
<stop offset="0.515" stop-color="#2A2E33"/>
<stop offset="1" stop-color="#405066"/>
</linearGradient>
</defs>
</svg>
